<svg id="visual" viewBox="0 0 1920 1080" width="1920" height="1080" xmlns="http://www.w3.org/2000/svg" xmlns:xlink="http://www.w3.org/1999/xlink" version="1.1"><rect x="0" y="0" width="1920" height="1080" fill="#fff"></rect><path d="M0 325L64 328.5C128 332 256 339 384 358.2C512 377.3 640 408.7 768 390.7C896 372.7 1024 305.3 1152 302.5C1280 299.7 1408 361.3 1536 377C1664 392.7 1792 362.3 1856 347.2L1920 332L1920 0L1856 0C1792 0 1664 0 1536 0C1408 0 1280 0 1152 0C1024 0 896 0 768 0C640 0 512 0 384 0C256 0 128 0 64 0L0 0Z" fill="#f6f6f6" stroke-linecap="round" stroke-linejoin="miter"></path></svg>